<?xml version="1.0" encoding="utf-8"?>
<!-- Generator: Adobe Illustrator 16.0.0, SVG Export Plug-In . SVG Version: 6.00 Build 0)  -->
<!DOCTYPE svg PUBLIC "-//W3C//DTD SVG 1.1//EN" "http://www.w3.org/Graphics/SVG/1.1/DTD/svg11.dtd">
<svg version="1.1" id="Layer_1" xmlns="http://www.w3.org/2000/svg" xmlns:xlink="http://www.w3.org/1999/xlink" x="0px" y="0px"
	 width="241.89px" height="195.28px" viewBox="0 0 841.89 595.28" enable-background="new 0 0 841.89 595.28" xml:space="preserve">
<g>

	<g>
		<path fill="#ffffff" d="M211.018,242.246l-4.422,10.597h-9.054l20.986-48.005h7.86l20.843,48.005h-8.91l-4.492-10.597H211.018z
			 M222.387,215.081l-8.071,19.374h16.281L222.387,215.081z"/>
		<path fill="#ffffff" d="M347.298,225.402h26.248v7.793h-26.248v11.856h26.248v7.791h-34.674v-47.72h34.674v7.791h-26.248V225.402z
			"/>
		<path fill="#ffffff" d="M405.844,237.12v15.722h-8.424v-47.72h19.579c10.74,0,18.531,6.314,18.531,16
			c0,7.228-4.282,12.558-10.95,14.804l13.827,16.916h-10.248L415.25,237.12H405.844z M416.72,229.33
			c5.895,0,10.529-3.084,10.529-8.207c0-5.055-4.635-8.209-10.529-8.209h-10.876v16.417H416.72z"/>
		<path fill="#ffffff" d="M467.898,242.246l-4.422,10.597h-9.05l20.981-48.005h7.861l20.846,48.005h-8.914l-4.492-10.597H467.898z
			 M479.272,215.081l-8.071,19.374h16.28L479.272,215.081z"/>
		<path fill="#ffffff" d="M556.164,252.842h-33.545v-47.72h8.419v40.144h25.126V252.842z"/>
		<path fill="#ffffff" d="M648.279,252.842h-8.419v-47.72h8.419V252.842z"/>
		<path fill="#ffffff" d="M680.3,225.402h26.241v7.793H680.3v11.856h26.241v7.791h-34.665v-47.72h34.665v7.791H680.3V225.402z"/>
		<polygon fill="#ffffff" points="183.531,204.935 182.761,204.935 173.698,204.935 172.928,204.935 155.047,224.742 
			150.369,224.742 150.369,204.94 142.155,204.94 142.155,252.75 150.369,252.75 150.369,232.952 155.047,232.952 172.928,252.752 
			173.698,252.752 182.761,252.752 183.527,252.752 161.525,228.847 		"/>
		<polygon fill="#ffffff" points="569.835,252.842 578.2,252.842 578.2,215.286 569.835,223.639 		"/>
		<polygon fill="#ffffff" points="607.908,205.123 607.908,238.036 580.466,205.123 569.835,205.123 609.662,252.842 
			616.259,252.842 616.259,205.123 		"/>
		<polygon fill="#ffffff" points="265.435,252.842 273.801,252.842 273.801,221.549 265.435,229.907 		"/>
		<polygon fill="#ffffff" points="314.937,205.729 305.464,205.729 290.185,234.564 274.907,205.729 265.435,205.729 
			286.641,245.753 293.73,245.753 306.57,221.52 306.57,252.842 314.937,252.842 314.937,205.899 314.85,205.899 		"/>
	</g>
</g>
</svg>
